<svg id="Logo" xmlns="http://www.w3.org/2000/svg" viewBox="0 0 85.56 96.64"><defs><style>.cls-1{fill:#4c4c4c;}.cls-2{fill:gray;}</style></defs><path class="cls-1" d="M86.4,68.46V23.38L47.36.84V18.13L62.66,27a.86.86,0,0,1,0,1.48L44.48,38.94a1.69,1.69,0,0,1-1.71,0L24.59,28.44a.86.86,0,0,1,0-1.48l15.29-8.83V.84L.84,23.38V68.46l15-8.64V42.16a.86.86,0,0,1,1.28-.74l18.18,10.5a1.71,1.71,0,0,1,.86,1.48v21a.86.86,0,0,1-1.28.74L19.55,66.3l-15,8.64,39,22.54,39-22.54-15-8.64-15.3,8.83a.86.86,0,0,1-1.28-.74v-21A1.71,1.71,0,0,1,52,51.92l18.18-10.5a.86.86,0,0,1,1.28.74V59.82Z" transform="translate(-0.84 -0.84)"/><path d="M43.62,97.48l39-22.54-15-8.64-15.3,8.83a.86.86,0,0,1-1.28-.74v-21A1.71,1.71,0,0,1,52,51.92l18.18-10.5a.86.86,0,0,1,1.28.74V59.82l15,8.64V23.38L43.62,48.08Z" transform="translate(-0.84 -0.84)"/><path class="cls-2" d="M47.36.84V18.13L62.66,27a.86.86,0,0,1,0,1.48L44.48,38.94a1.69,1.69,0,0,1-1.71,0L24.59,28.44a.86.86,0,0,1,0-1.48l15.29-8.83V.84L.84,23.38l42.78,24.7L86.4,23.38Z" transform="translate(-0.84 -0.84)"/><path class="cls-1" d="M34.86,75.13,19.56,66.3l-15,8.64,39,22.54V48.08L.85,23.38V68.46l15-8.64V42.16a.86.86,0,0,1,1.28-.74l18.18,10.5a1.71,1.71,0,0,1,.86,1.48v21A.86.86,0,0,1,34.86,75.13Z" transform="translate(-0.84 -0.84)"/></svg>